HIERARCHY
ROOT Hips
{
	OFFSET 0.000000 0.000000 0.000000 
	CHANNELS 6 Xposition Yposition Zposition Zrotation Yrotation Xrotation
	JOINT LeftUpLeg
	{
		OFFSET 1.363060 -1.794630 0.839290 
		CHANNELS 3 Zrotation Yrotation Xrotation
		JOINT LeftLeg
		{
			OFFSET 2.448110 -6.726130 0.000000 
			CHANNELS 3 Zrotation Yrotation Xrotation
			JOINT LeftFoot
			{
				OFFSET 2.562200 -7.039590 0.000000 
				CHANNELS 3 Zrotation Yrotation Xrotation
				JOINT LeftToeBase
				{
					OFFSET 0.157640 -0.433110 2.322550 
					CHANNELS 3 Zrotation Yrotation Xrotation
					End Site
					{
						OFFSET 0.000000 0.000000 0.000000 
					}
				}
			}
		}
	}
	JOINT RightUpLeg
	{
		OFFSET -1.305520 -1.794630 0.839290 
		CHANNELS 3 Zrotation Yrotation Xrotation
		JOINT RightLeg
		{
			OFFSET -2.542530 -6.985550 0.000000 
			CHANNELS 3 Zrotation Yrotation Xrotation
			JOINT RightFoot
			{
				OFFSET -2.568260 -7.056230 0.000000 
				CHANNELS 3 Zrotation Yrotation Xrotation
				JOINT RightToeBase
				{
					OFFSET -0.164730 -0.452590 2.363150 
					CHANNELS 3 Zrotation Yrotation Xrotation
					End Site
					{
						OFFSET 0.000000 0.000000 0.000000 
					}
				}
			}
		}
	}
	JOINT Spine
	{
		OFFSET 0.028270 2.035590 -0.193380 
		CHANNELS 3 Zrotation Yrotation Xrotation
		JOINT Spine1
		{
			OFFSET 0.056720 2.048850 -0.042750 
			CHANNELS 3 Zrotation Yrotation Xrotation
			JOINT Neck1
			{
				OFFSET -0.054170 1.746240 0.172020 
				CHANNELS 3 Zrotation Yrotation Xrotation
				JOINT Head
				{
					OFFSET 0.104070 1.761360 -0.123970 
					CHANNELS 3 Zrotation Yrotation Xrotation
					End Site
					{
						OFFSET 0.000000 0.000000 0.000000 
					}
				}
			}
			JOINT LeftArm
			{
				OFFSET 3.362410 1.200890 -0.311210 
				CHANNELS 3 Zrotation Yrotation Xrotation
				JOINT LeftForeArm
				{
					OFFSET 4.983000 -0.000000 -0.000000 
					CHANNELS 3 Zrotation Yrotation Xrotation
					JOINT LeftHand
					{
						OFFSET 3.483560 -0.000000 -0.000000 
						CHANNELS 3 Zrotation Yrotation Xrotation
						JOINT LeftHandIndex1
						{
							OFFSET 0.715260 -0.000000 -0.000000 
							CHANNELS 3 Zrotation Yrotation Xrotation
							End Site
							{
								OFFSET 0.000000 0.000000 0.000000 
							}
						}
					}
				}
			}
			JOINT RightArm
			{
				OFFSET -3.136600 1.374050 -0.404650 
				CHANNELS 3 Zrotation Yrotation Xrotation
				JOINT RightForeArm
				{
					OFFSET -5.241900 -0.000000 -0.000000 
					CHANNELS 3 Zrotation Yrotation Xrotation
					JOINT RightHand
					{
						OFFSET -3.444170 -0.000000 -0.000000 
						CHANNELS 3 Zrotation Yrotation Xrotation
						JOINT RightHandIndex1
						{
							OFFSET -0.622530 -0.000000 -0.000000 
							CHANNELS 3 Zrotation Yrotation Xrotation
							End Site
							{
								OFFSET 0.000000 0.000000 0.000000 
							}
						}
					}
				}
			}
		}
	}
}
MOTION
Frames: 6
Frame Time: 0.041667
0.844369 17.806896 -28.395854 -7.946413 0.558708 -2.277164 -11.443704 -15.219350 -25.805551 0.145210 6.047828 16.375246 -0.941310 14.072591 20.455626 0.179400 -2.728500 -7.523600 33.625344 -0.447750 15.937978 -8.009517 -13.753296 49.123070 2.789541 -20.510345 12.765816 -0.074900 -1.765400 4.857800 2.278501 5.824483 -0.692887 1.557337 3.296886 -2.984177 6.065140 -7.707686 12.237045 3.218700 -3.789600 8.449800 -77.650174 48.672468 40.138408 111.617463 -63.805839 -80.967626 -0.202313 -1.097112 -30.883862 -7.125000 0.000000 0.000000 77.047462 -2.737866 39.308767 -149.653427 42.166350 -108.919009 1.296929 -1.576408 -13.262778 7.125000 0.000000 0.000000 
0.840334 17.745467 -27.863067 -8.093108 0.192721 -2.714502 -11.494583 -14.007494 -25.768346 0.108481 5.980183 16.276992 -0.479114 12.676465 21.939819 0.221500 -3.029300 -8.360300 33.963690 0.468472 15.626128 -8.984001 -14.490278 52.818932 2.958018 -21.030135 11.750008 -0.011600 -0.694100 1.907400 2.292020 5.749960 -0.447000 1.649635 3.254286 -2.520815 5.925891 -7.659474 12.019845 3.096300 -3.735300 8.562500 -78.375782 48.381010 39.164756 114.239273 -63.227980 -82.799167 -0.222656 -1.029404 -31.341984 -7.125000 0.000000 0.000000 77.272428 -2.360915 40.143106 -149.411466 42.386400 -108.762302 1.371396 -1.581884 -11.894443 7.125000 0.000000 0.000000 
0.838216 17.669614 -27.339561 -7.889734 -0.049482 -3.148403 -11.857604 -13.322716 -25.839985 0.181470 6.224194 17.106674 -0.038392 10.954611 22.927083 0.331900 -3.702300 -10.240700 33.701402 1.194338 14.899199 -10.032828 -15.193536 56.659829 2.993840 -21.063858 11.051044 -0.234100 3.113700 -8.595500 2.178357 5.687775 -0.226844 1.493236 3.213670 -2.196330 5.859696 -7.676050 12.213845 2.946100 -3.679600 8.969500 -78.607877 47.343223 38.621713 116.092988 -62.731207 -84.143014 -0.202852 -0.932640 -31.854544 -7.125000 0.000000 0.000000 77.872135 -1.913231 40.583929 -149.005971 42.721620 -108.526535 1.356245 -1.556756 -11.711633 7.125000 0.000000 0.000000 
0.829945 17.606471 -26.815348 -7.461404 -0.131012 -3.703058 -12.657647 -12.333844 -25.788262 0.299701 6.580415 18.342546 0.514499 8.675886 24.238592 0.262100 -3.293600 -9.097200 33.055511 1.713227 13.945844 -11.075363 -15.808858 60.368759 3.045280 -21.015921 10.074850 -0.139400 -2.406500 6.630400 2.009083 5.619362 -0.274881 1.421651 3.175994 -2.604810 5.799661 -7.703369 11.910897 2.834700 -3.677800 8.696100 -77.948448 47.294211 38.849806 118.206386 -62.202307 -85.609444 -0.192821 -0.888532 -32.487517 -7.125000 0.000000 0.000000 78.731340 -2.765248 40.735566 -148.672062 42.938200 -108.370901 1.283553 -1.483224 -12.726820 7.125000 0.000000 0.000000 
0.812394 17.501366 -26.303945 -7.246384 0.013291 -4.372284 -13.274594 -11.500848 -25.753395 0.504188 7.116767 20.132313 0.906365 6.386288 24.679259 0.065500 -1.651400 -4.543300 32.348095 1.410592 13.138032 -12.108728 -16.333537 63.985409 3.005636 -20.420014 8.946612 -0.141100 -2.420500 6.669400 1.837677 5.538358 -0.653054 1.258320 3.138723 -3.887812 5.914295 -7.653642 10.744318 2.903800 -3.705500 7.507100 -76.348071 48.395188 39.985696 120.511628 -61.646026 -87.164628 -0.196431 -0.870665 -33.288272 -7.125000 0.000000 0.000000 79.886499 -5.455179 41.191830 -149.055490 42.450842 -108.741734 1.193189 -1.239865 -12.893401 7.125000 0.000000 0.000000 
0.804627 17.367413 -25.797082 -7.178291 0.007009 -4.956760 -13.591465 -11.199966 -25.726038 0.856363 7.905604 22.620699 0.817992 5.051050 22.697948 0.010300 -0.654700 -1.799200 31.699570 1.309536 11.907397 -13.195329 -16.821295 67.676761 2.974799 -19.915763 7.834664 -0.162800 -2.599200 7.164700 1.714311 5.565696 -0.489138 0.983653 3.143593 -3.712980 6.016527 -7.802472 10.524140 2.866900 -3.738100 7.528700 -75.406304 46.698413 40.943965 121.699029 -61.239963 -88.015473 -0.213088 -0.865256 -33.993275 -7.125000 0.000000 0.000000 80.815660 -6.035766 40.829267 -148.108414 43.242062 -108.096253 1.227318 -1.451529 -11.448815 7.125000 0.000000 0.000000 
